<svg width="32" height="32" viewBox="0 0 32 32" fill="none" xmlns="http://www.w3.org/2000/svg">
<rect x="0.818848" y="0.867859" width="30.4897" height="30.4897" rx="15.2448" fill="#EDA415"/>
<path d="M8.89203 8.9411H10.1399C10.9144 8.9411 11.524 9.60806 11.4595 10.3754L10.8642 17.5184C10.7638 18.6873 11.689 19.6914 12.8651 19.6914H20.5029C21.5356 19.6914 22.4392 18.8451 22.5181 17.8196L22.9054 12.4409C22.9914 11.2504 22.0878 10.2822 20.8902 10.2822H11.6316" stroke="white" stroke-width="1.47531" stroke-miterlimit="10" stroke-linecap="round" stroke-linejoin="round"/>
<path d="M19.1116 23.2844C19.6067 23.2844 20.0081 22.883 20.0081 22.3879C20.0081 21.8928 19.6067 21.4915 19.1116 21.4915C18.6165 21.4915 18.2151 21.8928 18.2151 22.3879C18.2151 22.883 18.6165 23.2844 19.1116 23.2844Z" stroke="white" stroke-width="1.47531" stroke-miterlimit="10" stroke-linecap="round" stroke-linejoin="round"/>
<path d="M13.3744 23.2844C13.8695 23.2844 14.2708 22.883 14.2708 22.3879C14.2708 21.8928 13.8695 21.4915 13.3744 21.4915C12.8793 21.4915 12.4779 21.8928 12.4779 22.3879C12.4779 22.883 12.8793 23.2844 13.3744 23.2844Z" stroke="white" stroke-width="1.47531" stroke-miterlimit="10" stroke-linecap="round" stroke-linejoin="round"/>
<path d="M13.9122 13.2441H22.5181" stroke="white" stroke-width="1.47531" stroke-miterlimit="10" stroke-linecap="round" stroke-linejoin="round"/>
</svg>
