<svg width="16" height="16" viewBox="0 0 16 16" fill="none" xmlns="http://www.w3.org/2000/svg">
<path d="M9.28206 1.41659L10.5803 4.01313C10.7574 4.36721 11.2295 4.72128 11.6229 4.78029L13.9735 5.17371C15.4783 5.42943 15.8324 6.51132 14.7505 7.59321L12.9211 9.43242C12.6162 9.73732 12.4392 10.3373 12.5376 10.77L13.0588 13.042C13.4719 14.832 12.5179 15.5304 10.9344 14.596L8.73128 13.2879C8.32803 13.0518 7.67889 13.0518 7.27564 13.2879L5.06268 14.5862C3.47919 15.5205 2.52516 14.8222 2.93824 13.0322L3.45952 10.7602C3.55787 10.3373 3.38083 9.73732 3.07594 9.42259L1.25639 7.60304C0.174501 6.52115 0.528575 5.42943 2.03339 5.18354L4.38404 4.79013C4.77746 4.72128 5.24955 4.37704 5.42659 4.02297L6.72486 1.42643C7.42317 0.0101353 8.58375 0.0101352 9.28206 1.41659Z" fill="#ACACAC"/>
</svg>
