<svg width="15" height="16" viewBox="0 0 15 16" fill="none" xmlns="http://www.w3.org/2000/svg">
<path d="M8.64561 1.65457L9.94388 4.25111C10.1209 4.60518 10.593 4.95926 10.9864 5.01827L13.3371 5.41168C14.8419 5.6674 15.196 6.74929 14.1141 7.83119L12.2847 9.6704C11.9798 9.9753 11.8028 10.5753 11.9011 11.008L12.4224 13.28C12.8355 15.07 11.8815 15.7683 10.298 14.834L8.09483 13.5259C7.69158 13.2898 7.04245 13.2898 6.6392 13.5259L4.42624 14.8241C2.84274 15.7585 1.88871 15.0602 2.3018 13.2701L2.82307 10.9982C2.92143 10.5753 2.74439 9.9753 2.43949 9.66056L0.619948 7.84102C-0.461943 6.75913 -0.107869 5.6674 1.39694 5.42152L3.7476 5.0281C4.14101 4.95926 4.61311 4.61502 4.79015 4.26094L6.08842 1.66441C6.78673 0.248111 7.9473 0.248111 8.64561 1.65457Z" fill="#ACACAC"/>
</svg>
